<svg xmlns="http://www.w3.org/2000/svg" viewBox="0 0 32 32"><defs><linearGradient id="a" x1="50%" x2="50%" y1="0%" y2="100%"><stop offset="0%" stop-color="#59B0A7"/><stop offset="100%" stop-color="#2D786E"/></linearGradient><linearGradient id="b" x1="50%" x2="50%" y1="0%" y2="100%"><stop offset="0%" stop-color="#FFDFC9"/><stop offset="100%" stop-color="#FB9"/></linearGradient><linearGradient id="c" x1="50%" x2="50%" y1="0%" y2="100%"><stop offset="0%" stop-color="#FFDFC9"/><stop offset="100%" stop-color="#FB9"/></linearGradient><linearGradient id="d" x1="50%" x2="50%" y1="0%" y2="100%"><stop offset="0%" stop-color="#FFDFC9"/><stop offset="100%" stop-color="#FB9"/></linearGradient><linearGradient id="e" x1="50%" x2="50%" y1="0%" y2="100%"><stop offset="0%" stop-color="#FFDFC9"/><stop offset="100%" stop-color="#FB9"/></linearGradient><linearGradient id="f" x1="53.039%" x2="32.91%" y1="54.131%" y2="99.64%"><stop offset="0%" stop-color="#3794FA"/><stop offset="99.96%" stop-color="#83BEFF"/></linearGradient></defs><g fill="none" fill-rule="evenodd"><g fill-rule="nonzero"><path fill="url(#a)" d="M9 14.13c-3.004 0-9 1.507-9 4.5v2.25h18v-2.25c0-2.992-5.996-4.5-9-4.5Z" transform="translate(4 6)"/><path fill="#2D786E" d="m17.687 20.918-.645-.253-.08-.035a3.147 3.147 0 0 0-1.262-.264h-5.4c-.434 0-.864.09-1.261.264l-.081.035-.645.253a4.833 4.833 0 0 0 9.374 0Z"/><path fill="#E0D3CD" d="M16.662 20.517c-.31-.1-.635-.15-.962-.15h-5.4c-.327 0-.651.05-.962.15a3.757 3.757 0 0 0 7.324 0Z"/><path fill="url(#b)" d="M11.665 12.972c-.467.661-1.094 1.28-1.93 1.684-.227.11-.476.17-.729.17h-.01a1.69 1.69 0 0 1-.732-.172c-.835-.404-1.462-1.023-1.929-1.684-.168.622-.48 1.299-.85 1.67l-.109.027a3.757 3.757 0 0 0 7.248 0c-.036-.01-.072-.018-.108-.026-.371-.372-.683-1.048-.85-1.669Z" transform="translate(4 6)"/><path fill="url(#c)" d="M13.946 7.633c-.205-.187-.612-.092-.788.023.039.24.04.486.008.728l-.264 1.514c0 .122-.014.241-.021.359.507.153.824-.302.866-.614.019-.135.049-.267.09-.396.135-.421.621-1.144.109-1.614Z" transform="translate(4 6)"/><path fill="url(#d)" d="M4.055 7.633c.205-.187.612-.092.788.023-.039.24-.04.486-.007.728l.263 1.514c0 .122.028.241.035.359-.507.153-.838-.302-.88-.614a2.322 2.322 0 0 0-.09-.396c-.135-.421-.62-1.144-.109-1.614Z" transform="translate(4 6)"/><path fill="url(#e)" d="M13.033 7.188a2.019 2.019 0 0 0-.18-.362 1.087 1.087 0 0 1-.164-.664c.048-.669.022-1.979-.857-2.374-.746-.336-1.662-.142-2.247.053-.379.126-.79.126-1.17 0-.583-.194-1.5-.389-2.246-.053-.882.397-.905 1.712-.856 2.38.017.231-.04.462-.165.658a1.996 1.996 0 0 0-.17.335 2.446 2.446 0 0 0-.14 1.236l.205 1.5s.513 3.557 3.221 4.868c.228.111.479.173.732.173h.01c.253 0 .502-.061.73-.171 2.637-1.276 3.194-4.679 3.222-4.861v-.008l.208-1.514a2.422 2.422 0 0 0-.133-1.196Z" transform="translate(4 6)"/><path fill="#404051" d="M18.609 10.663c.257-.039.54-.241.696-.368a.098.098 0 0 0-.02-.164c-1.217-.596-1.949-2.527-2.938-3.14-.847-.525-1.578-.222-1.808-.1a.097.097 0 0 1-.124-.03c-.327-.455-.87-.726-1.189-.854a.098.098 0 0 0-.123.137c.14.27.2.49.224.634a.098.098 0 0 1-.14.104c-1.067-.528-2.966-.152-4.124 1.265-.965 1.179-1.708 1.356-1.976 1.378a.098.098 0 0 0-.086.123c.104.392.504.645.674.738a.096.096 0 0 1 .04.131c-.081.139-.253.223-.354.262a.097.097 0 0 0-.06.112c.098.434.557 2.4 1.044 3.161.339.531.524 1.249.616 1.719.013.067.11.06.115-.007.037-.513.09-1.35.11-2.133.025-.96.864-1.526 1.247-1.734.074-.04.16.026.142.108l-.052.237a.098.098 0 0 0 .112.118c2.868-.48 3.921-1.47 4.306-2.088a.11.11 0 0 1 .204.054c.09 1.846 1.516 2.07 1.722 2.89.17.67.126 1.945.094 2.546-.005.083.108.112.143.038.447-.947.383-2.255 1.094-3.12.578-.702.846-1.163.949-1.36a.097.097 0 0 0-.059-.137 1.206 1.206 0 0 1-.539-.36.098.098 0 0 1 .06-.16Z"/></g><path fill="url(#f)" d="M26.541 6.413c-.545-.717-1.108-1.46-1.563-2.256-.12-.21-.455-.21-.574 0-.455.797-1.019 1.539-1.564 2.256-1.105 1.456-2.15 2.831-2.15 4.458 0 2.277 1.795 4.129 4 4.129 2.207 0 4-1.852 4-4.13 0-1.626-1.043-3-2.149-4.457Z"/></g></svg>
