<svg xmlns="http://www.w3.org/2000/svg" viewBox="0 0 32 32"><defs><linearGradient id="a" x1="66.485%" x2="44.863%" y1="36.675%" y2="53.385%"><stop offset="0%" stop-color="#FFCA00"/><stop offset="100%" stop-color="#F88428"/></linearGradient><linearGradient id="b" x1="52.14%" x2="49.333%" y1="11.202%" y2="59.857%"><stop offset="0%" stop-color="#FFCA00"/><stop offset="100%" stop-color="#F88428"/></linearGradient></defs><g fill="none" fill-rule="evenodd"><path fill="url(#a)" fill-rule="nonzero" d="m22.314.935 1.56.26-1.411.733a10.68 10.68 0 0 1 .054 1.135L24 3.646l-1.536.425c-.038.379-.097.752-.174 1.118l1.336.883-1.591.095c-.111.354-.24.7-.386 1.036l1.142 1.12-1.59-.21a10.55 10.55 0 0 1-.597.951l.89 1.343-1.514-.54c-.239.278-.49.544-.756.795l.617 1.486-1.39-.821c-.293.228-.6.442-.917.64l.296 1.585-1.186-1.09a10.46 10.46 0 0 1-1.028.441l-.04 1.615-.93-1.31c-.352.091-.71.165-1.074.22L13.226 15l-.667-1.469a10.685 10.685 0 0 1-1.119.001L10.774 15l-.345-1.568a10.463 10.463 0 0 1-1.078-.219l-.927 1.305-.04-1.605c-.355-.13-.701-.278-1.037-.443L6.17 13.552l.293-1.572a10.555 10.555 0 0 1-.928-.645l-1.376.813.61-1.47c-.27-.254-.526-.522-.767-.803l-1.495.532.877-1.325c-.22-.31-.422-.633-.607-.967l-1.568.209 1.125-1.105c-.149-.342-.28-.693-.394-1.053L.374 6.072l1.314-.869a10.536 10.536 0 0 1-.177-1.14L0 3.647l1.459-.574a10.781 10.781 0 0 1 .055-1.156L.125 1.194 1.66.94 22.314.935Z" transform="translate(4 1)"/><path fill="url(#b)" d="M6.016 16.71v7.252H3.971L6.5 30.027l2.507-6.065H7.342v-7.251a.663.663 0 0 0-1.326 0Zm9.029-.047v7.251H13l2.53 6.065 2.506-6.065h-1.665v-7.251a.663.663 0 0 0-1.326 0Zm8.971.047v7.252h-2.045l2.529 6.065 2.507-6.065h-1.665v-7.251a.663.663 0 0 0-1.326 0Z"/></g></svg>
