<svg xmlns="http://www.w3.org/2000/svg" viewBox="0 0 32 32"><defs><linearGradient id="a" x1="100%" x2="0%" y1="50%" y2="50%"><stop offset="0%" stop-color="#00DFE7"/><stop offset="100%" stop-color="#00BCCB"/></linearGradient></defs><path fill="url(#a)" d="M21.365 15.77a3.511 3.511 0 0 1-3.507-3.507.757.757 0 1 1 1.514 0c0 1.099.894 1.993 1.993 1.993 1.1 0 1.994-.894 1.994-1.993 0-1.1-.895-1.994-1.994-1.994h-6.957a.757.757 0 1 1 0-1.513h6.957a3.511 3.511 0 0 1 3.507 3.507 3.511 3.511 0 0 1-3.507 3.507ZM.827 8.73h9.46a.757.757 0 1 1 0 1.514H.826a.757.757 0 1 1 0-1.514ZM21.365.164a3.511 3.511 0 0 1 3.507 3.507 3.511 3.511 0 0 1-3.507 3.508H8.845a.757.757 0 1 1 0-1.514h12.52c1.1 0 1.994-.894 1.994-1.994 0-1.099-.895-1.993-1.994-1.993s-1.993.894-1.993 1.993a.757.757 0 0 1-1.514 0A3.511 3.511 0 0 1 21.365.164Zm-15.761 5.5a.757.757 0 0 1 0 1.515H.755a.757.757 0 0 1 0-1.514h4.849ZM14.303 0c1.175 0 2.132.956 2.132 2.132a2.134 2.134 0 0 1-2.132 2.132H6.458a.757.757 0 1 1 0-1.514h7.845a.619.619 0 0 0 0-1.236.757.757 0 1 1 0-1.514Z" transform="translate(3 8)"/></svg>
