<svg xmlns="http://www.w3.org/2000/svg" viewBox="0 0 32 32"><defs><linearGradient id="a" x1="50%" x2="50%" y1="0%" y2="100%"><stop offset="0%" stop-color="#BFBEC7"/><stop offset="100%" stop-color="#8B8996"/></linearGradient><linearGradient id="b" x1="0%" x2="100%" y1="50%" y2="50%"><stop offset="0%" stop-color="#8BF0FF"/><stop offset="100%" stop-color="#53DCFF"/></linearGradient></defs><g fill="none"><path fill="#B9BBC1" d="M12.798 8c-.653 0-1.24.442-1.457 1.1a.42.42 0 0 0 .236.526c.132.051.27.013.371-.077l1.623 2.08v.496c0 .228.173.413.386.413.214 0 .387-.185.387-.413V9.65c0-.91-.693-1.65-1.546-1.65Zm6.495 0c.653 0 1.239.442 1.457 1.1a.42.42 0 0 1-.236.526.361.361 0 0 1-.371-.077l-1.623 2.08v.496c0 .228-.173.413-.387.413-.213 0-.386-.185-.386-.413V9.65c0-.91.693-1.65 1.546-1.65Z"/><path fill="url(#a)" d="M20.636 8.756a2.89 2.89 0 0 1 2.029.829l5.292 5.733-.61.554-.142-.155-8.633 2.349v.112c0 .226-.184.41-.412.41a.411.411 0 0 1-.413-.41v-4.507h-3.404v4.507a.41.41 0 0 1-.329.401l-.083.009a.41.41 0 0 1-.404-.327l-.009-.083v-.112l-8.632-2.35-.143.156-.609-.554 5.292-5.733a2.89 2.89 0 0 1 2.029-.829 2.884 2.884 0 0 1 2.884 2.7l.005.168v1.291h3.402l.001-1.291c0-1.581 1.296-2.868 2.89-2.868Z"/><circle cx="8.672" cy="18.966" r="4.538" fill="url(#b)"/><circle cx="23.419" cy="18.966" r="4.538" fill="#53DCFF"/><path fill="#5C546A" stroke="#5E536C" d="M8.672 13.294A5.678 5.678 0 0 0 3 18.966a5.678 5.678 0 0 0 5.672 5.672 5.678 5.678 0 0 0 5.672-5.672 5.678 5.678 0 0 0-5.672-5.672Zm0 9.723a4.056 4.056 0 0 1-4.051-4.051 4.056 4.056 0 0 1 4.05-4.052 4.056 4.056 0 0 1 4.052 4.052 4.056 4.056 0 0 1-4.051 4.051Zm14.747-9.723a5.678 5.678 0 0 0-5.672 5.672 5.678 5.678 0 0 0 5.672 5.672 5.678 5.678 0 0 0 5.672-5.672 5.678 5.678 0 0 0-5.672-5.672Zm0 9.723a4.056 4.056 0 0 1-4.051-4.051 4.056 4.056 0 0 1 4.051-4.052 4.056 4.056 0 0 1 4.051 4.052 4.056 4.056 0 0 1-4.051 4.051Z"/><path fill="#5C546A" d="M12.517 13.673h6.678l.065-.001a4.292 4.292 0 0 0-1.317 3.094v1.443H13.77v-1.443a4.292 4.292 0 0 0-1.317-3.094"/></g></svg>
